# xmcd CD database file
#
# Track frame offsets:
#	150
#	20010
#	41950
#	59369
#	78755
#	95987
#	118120
#	135393
#	158592
#	177854
#	201092
#
# Disc length: 3038 seconds
#
# Revision: 0
# Processed by: cddbd v1.5.2PL0 Copyright (c) Steve Scherf et al.
# Submitted via: CDex 1.70beta2
#
DISCID=920bdc0b
DTITLE=Dinosaurs - Dinosaurs
DYEAR=2007
DGENRE=Blues
TTITLE0=southside story
TTITLE1=love you too much
TTITLE2=messin with the kid
TTITLE3=still got the blues for you
TTITLE4=early in the mornin
TTITLE5=enough of the blues
TTITLE6=honey by my side
TTITLE7=world of hurt
TTITLE8=there goes the neighborhood
TTITLE9=god bless the child
TTITLE10=memphis women
EXTD=YEAR: 2007
EXTT0=
EXTT1=
EXTT2=
EXTT3=
EXTT4=
EXTT5=
EXTT6=
EXTT7=
EXTT8=
EXTT9=
EXTT10=
PLAYORDER=
